<svg width="24" height="24" viewBox="0 0 24 24" fill="none" xmlns="http://www.w3.org/2000/svg">
<path d="M12.6144 21H3.99346C3.44463 21 3 20.5551 3 20.0065V3.99345C3 3.44469 3.4447 3 3.99346 3H20.0066C20.5552 3 21 3.44469 21 3.99345V20.0065C21 20.5552 20.5552 21 20.0066 21H15.4197V14.0294H17.7594L18.1098 11.3128H15.4197V9.57849C15.4197 8.79198 15.6381 8.256 16.766 8.256L18.2045 8.25537V5.82566C17.9557 5.79255 17.1018 5.71859 16.1083 5.71859C14.0343 5.71859 12.6144 6.98457 12.6144 9.30945V11.3128H10.2687V14.0294H12.6144V21V21Z" fill="#0081FE"/>
</svg>
