<svg width="24" height="24" viewBox="0 0 24 24" fill="none" xmlns="http://www.w3.org/2000/svg">
<path d="M21 6.77573C20.3386 7.07692 19.6265 7.28061 18.8796 7.37161C19.6424 6.90358 20.2277 6.16143 20.5034 5.27736C19.7892 5.71073 19 6.026 18.1569 6.19502C17.4849 5.45937 16.5246 5 15.4617 5C13.4237 5 11.7702 6.69556 11.7702 8.78657C11.7702 9.08342 11.8019 9.37161 11.8653 9.64897C8.79609 9.49079 6.07554 7.98483 4.25304 5.69122C3.93502 6.25244 3.7533 6.90358 3.7533 7.59697C3.7533 8.91008 4.40518 10.0693 5.3962 10.7486C4.79186 10.7302 4.22134 10.558 3.72266 10.2763V10.3229C3.72266 12.1582 4.99577 13.6891 6.68621 14.0358C6.37665 14.1246 6.05018 14.169 5.71315 14.169C5.47544 14.169 5.243 14.1463 5.01796 14.1018C5.48811 15.6056 6.85103 16.701 8.46751 16.7302C7.20391 17.7465 5.61067 18.3521 3.88114 18.3521C3.5832 18.3521 3.28843 18.3348 3 18.3001C4.63444 19.3727 6.57633 20 8.66086 20C15.4543 20 19.168 14.2308 19.168 9.22644C19.168 9.06176 19.1648 8.89707 19.1585 8.73564C19.8801 8.20152 20.5066 7.53521 21 6.77573" fill="#0081FE"/>
</svg>
